<svg id="Google_icon" data-name="Google icon" xmlns="http://www.w3.org/2000/svg" xmlns:xlink="http://www.w3.org/1999/xlink" width="24.676" height="25.25" viewBox="0 0 24.676 25.25">
  <defs>
    <clipPath id="clip-path">
      <path id="Path_9" data-name="Path 9" d="M26.389,12.33H14.625v4.878H21.4c-.631,3.1-3.271,4.878-6.772,4.878a7.46,7.46,0,1,1,0-14.92,7.3,7.3,0,0,1,4.648,1.664l3.673-3.673A12.617,12.617,0,1,0,14.625,27.25c6.312,0,12.051-4.591,12.051-12.625A10.474,10.474,0,0,0,26.389,12.33Z" transform="translate(-2 -2)"/>
    </clipPath>
  </defs>
  <g id="Group_5" data-name="Group 5" clip-path="url(#clip-path)">
    <path id="Path_8" data-name="Path 8" d="M0,25.92V11l9.756,7.46Z" transform="translate(-1.148 -5.835)" fill="#fbbc05"/>
  </g>
  <g id="Group_6" data-name="Group 6" clip-path="url(#clip-path)">
    <path id="Path_10" data-name="Path 10" d="M0,6.312l9.756,7.46,4.017-3.5L27.545,8.034V0H0Z" transform="translate(-1.148 -1.148)" fill="#ea4335"/>
  </g>
  <g id="Group_7" data-name="Group 7" clip-path="url(#clip-path)">
    <path id="Path_12" data-name="Path 12" d="M0,21.233l17.216-13.2,4.534.574L27.545,0V27.545H0Z" transform="translate(-1.148 -1.148)" fill="#34a853"/>
  </g>
  <g id="Group_8" data-name="Group 8" clip-path="url(#clip-path)">
    <path id="Path_14" data-name="Path 14" d="M33.085,32.233,15.3,18.46,13,16.739,33.085,11Z" transform="translate(-6.688 -5.835)" fill="#4285f4"/>
  </g>
</svg>
